<svg height="512" viewBox="0 0 64 64" width="512" xmlns="http://www.w3.org/2000/svg"><g id="Flat"><g id="Stroke_copy_2" data-name="Stroke copy 2"><g><path d="m24.352 25.956a12.989 12.989 0 1 0 -4.387 2.423l6.035 3.621z" fill="#aae1f9"/><path d="m25.939 24.347a15.429 15.429 0 0 1 -19.8-16.8 12.993 12.993 0 0 0 13.826 20.832l6.035 3.621-1.648-6.044a13.04 13.04 0 0 0 1.587-1.609z" fill="#57b7eb"/><path d="m16 24a1 1 0 0 1 -1-1v-13a1 1 0 0 1 2 0v13a1 1 0 0 1 -1 1z" fill="#e59730"/><path d="m21 14a1 1 0 0 1 -1-1v-1a1 1 0 0 1 2 0v1a1 1 0 0 1 -1 1z" fill="#e59730"/><path d="m11 14a1 1 0 0 1 -1-1v-1a1 1 0 0 1 2 0v1a1 1 0 0 1 -1 1z" fill="#e59730"/><path d="m52.1 20.384-2.9 2.9a15.991 15.991 0 1 1 -21.427 22.716h-4.616a19.988 19.988 0 1 0 28.943-25.616z" fill="#d0d8da"/><path d="m49.2 23.283a16.092 16.092 0 0 1 3.8 3.161 3.981 3.981 0 0 0 2-3.444c0-.1-.022-.189-.029-.285a20.176 20.176 0 0 0 -2.87-2.331z" fill="#93999a"/><path d="m15 42h22a0 0 0 0 1 0 0v1a3 3 0 0 1 -3 3h-16a3 3 0 0 1 -3-3v-1a0 0 0 0 1 0 0z" fill="#d0d8da"/><path d="m22 36h8a4 4 0 0 1 4 4v2a0 0 0 0 1 0 0h-16a0 0 0 0 1 0 0v-2a4 4 0 0 1 4-4z" fill="#f9e109"/><g><path d="m40.151 8.849h12v18h-12z" fill="#d0d8da" transform="matrix(.707 .707 -.707 .707 26.139 -27.406)"/><path d="m33.665 23.335h8v6h-8z" fill="#93999a" transform="matrix(.707 .707 -.707 .707 29.653 -18.92)"/><path d="m31.776 27.724h4v5h-4z" fill="#93999a" transform="matrix(.707 .707 -.707 .707 31.264 -15.031)"/><path d="m51.636 6.364h6v6h-6z" fill="#d0d8da" transform="matrix(.707 .707 -.707 .707 22.624 -35.891)"/><g><path d="m51.1 17.385a10 10 0 0 1 -13.527.556l-2.03 2.03 8.485 8.485 12.729-12.728-2-2z" fill="#93999a"/><path d="m51.423 8.334-1.03 1.03 4.243 4.243 4.243-4.243-1.03-1.03a4.968 4.968 0 0 1 -6.426 0z" fill="#93999a"/><g fill="#656b76"><path d="m36.958 21.385-1.5 1.5.622.621a5 5 0 0 1 .7 6.182l1.6 1.6 4.242-4.242z"/><path d="m34.13 27.042-1.03 1.029a2.991 2.991 0 0 1 -.263 3.92l-.414.415 1 1 3.535-3.536z"/></g></g><path d="m60 12a1 1 0 0 1 -.707-.293l-7-7a1 1 0 0 1 1.414-1.414l7 7a1 1 0 0 1 -.707 1.707z" fill="#d0d8da"/></g><path d="m31 57h20a2 2 0 0 1 2 2v2a0 0 0 0 1 0 0h-24a0 0 0 0 1 0 0v-2a2 2 0 0 1 2-2z" fill="#d0d8da"/><circle cx="51" cy="22" fill="#f9e109" r="4"/><path d="m19 17h3a0 0 0 0 1 0 0 4 4 0 0 1 -4 4h-2a0 0 0 0 1 0 0v-1a3 3 0 0 1 3-3z" fill="#f9e109"/><path d="m10 17h2a4 4 0 0 1 4 4 0 0 0 0 1 0 0h-3a3 3 0 0 1 -3-3v-1a0 0 0 0 1 0 0z" fill="#f9e109" transform="matrix(-1 0 0 -1 26 38)"/><path d="m19 13h3a0 0 0 0 1 0 0 4 4 0 0 1 -4 4h-2a0 0 0 0 1 0 0v-1a3 3 0 0 1 3-3z" fill="#f9e109"/><path d="m10 13h2a4 4 0 0 1 4 4 0 0 0 0 1 0 0h-3a3 3 0 0 1 -3-3v-1a0 0 0 0 1 0 0z" fill="#f9e109" transform="matrix(-1 0 0 -1 26 30)"/><path d="m18 19h-1.816a2.962 2.962 0 0 0 -.184 1v1h2a4 4 0 0 0 4-4h-.555a3.982 3.982 0 0 1 -3.445 2z" fill="#fcbc04"/><path d="m14 19a3.982 3.982 0 0 1 -3.445-2h-.555a4 4 0 0 0 4 4h2v-1a2.962 2.962 0 0 0 -.184-1z" fill="#fcbc04"/><path d="m18 15h-1.816a2.962 2.962 0 0 0 -.184 1v1h2a4 4 0 0 0 4-4h-.555a3.982 3.982 0 0 1 -3.445 2z" fill="#fcbc04"/><path d="m14 15a3.982 3.982 0 0 1 -3.445-2h-.555a4 4 0 0 0 4 4h2v-1a2.962 2.962 0 0 0 -.184-1z" fill="#fcbc04"/><path d="m25 39a3 3 0 0 1 -3-3 4 4 0 0 0 -4 4v2h16v-2a3.977 3.977 0 0 0 -.141-1z" fill="#fcbc04"/><path d="m20 44a2 2 0 0 1 -2-2h-3v1a3 3 0 0 0 3 3h16a2.99 2.99 0 0 0 2.816-2z" fill="#93999a"/><path d="m52 23a3.987 3.987 0 0 1 -3.966-3.662 3.994 3.994 0 1 0 6.966 2.662c0-.116-.024-.225-.034-.338a3.976 3.976 0 0 1 -2.966 1.338z" fill="#fcbc04"/><path d="m44.539 54.843a19.886 19.886 0 0 1 -14.011-3.481 1.829 1.829 0 0 1 -.387-2.621 16.083 16.083 0 0 1 -2.368-2.741h-4.616a19.99 19.99 0 0 0 36.261-1.193 20.024 20.024 0 0 1 -14.879 10.036z" fill="#93999a"/><path d="m32 57h-1a2 2 0 0 0 -2 2v2h24v-2h-19a2 2 0 0 1 -2-2z" fill="#93999a"/><g fill="#e59730"><path d="m23 36v2a1 1 0 0 1 -2 0v-1.87a3.657 3.657 0 0 1 1-.13z"/><path d="m27 36v2a1 1 0 0 1 -2 0v-2z"/><path d="m31 36.13v1.87a1 1 0 0 1 -2 0v-2h1a3.657 3.657 0 0 1 1 .13z"/><path d="m27 36v2a1 1 0 0 1 -2 0v-2z"/><path d="m31 36.13v1.87a1 1 0 0 1 -2 0v-2h1a3.657 3.657 0 0 1 1 .13z"/><path d="m23 36v2a1 1 0 0 1 -2 0v-1.87a3.657 3.657 0 0 1 1-.13z"/></g><circle cx="51" cy="22" fill="#d0d8da" r="1"/></g></g></g></svg>