<svg height="512" viewBox="0 0 64 64" width="512" xmlns="http://www.w3.org/2000/svg"><g id="Flat"><g id="Color_copy" data-name="Color copy"><g><g><path d="m53 15h6a0 0 0 0 1 0 0v17a3 3 0 0 1 -3 3 3 3 0 0 1 -3-3v-17a0 0 0 0 1 0 0z" fill="#d0d8da"/><path d="m56 29v-9a3 3 0 0 1 3-3v-2h-6v17a3 3 0 0 0 6 0 3 3 0 0 1 -3-3z" fill="#656b76"/><rect fill="#d0d8da" height="4" rx="2" width="10" x="51" y="11"/><path d="m53 27h6a0 0 0 0 1 0 0v5a3 3 0 0 1 -3 3 3 3 0 0 1 -3-3v-5a0 0 0 0 1 0 0z" fill="#c4f236"/><path d="m56 29v-2h-3v5a3 3 0 0 0 6 0 3 3 0 0 1 -3-3z" fill="#a1d51c"/><path d="m56 23h3v2h-3z" fill="#656b76"/><path d="m53 11a2 2 0 0 0 0 4h6a2 2 0 0 0 2-2h-6a2 2 0 0 1 -2-2z" fill="#93999a"/></g><g><path d="m43 15h6a0 0 0 0 1 0 0v17a3 3 0 0 1 -3 3 3 3 0 0 1 -3-3v-17a0 0 0 0 1 0 0z" fill="#d0d8da"/><path d="m46 29v-9a3 3 0 0 1 3-3v-2h-6v17a3 3 0 0 0 6 0 3 3 0 0 1 -3-3z" fill="#656b76"/><rect fill="#d0d8da" height="4" rx="2" width="10" x="41" y="11"/><path d="m43 27h6a0 0 0 0 1 0 0v5a3 3 0 0 1 -3 3 3 3 0 0 1 -3-3v-5a0 0 0 0 1 0 0z" fill="#c4f236"/><path d="m46 29v-2h-3v5a3 3 0 0 0 6 0 3 3 0 0 1 -3-3z" fill="#a1d51c"/><path d="m46 23h3v2h-3z" fill="#656b76"/><path d="m43 11a2 2 0 0 0 0 4h6a2 2 0 0 0 2-2h-6a2 2 0 0 1 -2-2z" fill="#93999a"/></g><g><path d="m15 15h6a0 0 0 0 1 0 0v17a3 3 0 0 1 -3 3 3 3 0 0 1 -3-3v-17a0 0 0 0 1 0 0z" fill="#d0d8da"/><path d="m18 29v-9a3 3 0 0 1 3-3v-2h-6v17a3 3 0 0 0 6 0 3 3 0 0 1 -3-3z" fill="#656b76"/><rect fill="#d0d8da" height="4" rx="2" width="10" x="13" y="11"/><path d="m15 27h6a0 0 0 0 1 0 0v5a3 3 0 0 1 -3 3 3 3 0 0 1 -3-3v-5a0 0 0 0 1 0 0z" fill="#c4f236"/><path d="m18 29v-2h-3v5a3 3 0 0 0 6 0 3 3 0 0 1 -3-3z" fill="#a1d51c"/><path d="m18 23h3v2h-3z" fill="#656b76"/><path d="m15 11a2 2 0 0 0 0 4h6a2 2 0 0 0 2-2h-6a2 2 0 0 1 -2-2z" fill="#93999a"/></g><g><path d="m5 15h6a0 0 0 0 1 0 0v17a3 3 0 0 1 -3 3 3 3 0 0 1 -3-3v-17a0 0 0 0 1 0 0z" fill="#d0d8da"/><path d="m8 29v-9a3 3 0 0 1 3-3v-2h-6v17a3 3 0 0 0 6 0 3 3 0 0 1 -3-3z" fill="#656b76"/><rect fill="#d0d8da" height="4" rx="2" width="10" x="3" y="11"/><path d="m5 27h6a0 0 0 0 1 0 0v5a3 3 0 0 1 -3 3 3 3 0 0 1 -3-3v-5a0 0 0 0 1 0 0z" fill="#c4f236"/><path d="m8 29v-2h-3v5a3 3 0 0 0 6 0 3 3 0 0 1 -3-3z" fill="#a1d51c"/><path d="m8 23h3v2h-3z" fill="#656b76"/><path d="m5 11a2 2 0 0 0 0 4h6a2 2 0 0 0 2-2h-6a2 2 0 0 1 -2-2z" fill="#93999a"/></g><g><path d="m38 9a6 6 0 1 0 -8 5.651v24.349h4v-24.349a6 6 0 0 0 4-5.651zm-6 2a2 2 0 1 1 2-2 2 2 0 0 1 -2 2z" fill="#57b7eb"/><path d="m32 14v-1.3a8.406 8.406 0 0 1 -3.932-8.227 5.989 5.989 0 0 0 1.932 10.178v24.349h4v-3a2 2 0 0 1 -2-2v-6a2 2 0 0 1 2-2v-10a2 2 0 0 1 -2-2z" fill="#4891d3"/><rect fill="#aae1f9" height="4" rx="2" width="58" x="3" y="19"/><path d="m61 61h-58v-18l2-4h54l2 4z" fill="#d0d8da"/><path d="m5 19a2 2 0 0 0 0 4h54a2 2 0 0 0 2-2h-54a2 2 0 0 1 -2-2z" fill="#57b7eb"/><path d="m26 51a12 12 0 0 1 -12-12h-9l-2 4v18h58v-10z" fill="#93999a"/></g><g><path d="m23 45h18v8h-18z" fill="#57b7eb"/><path d="m30 45 8 8h3v-8z" fill="#aae1f9"/><path d="m53 45h4v4h-4z" fill="#f9e109"/><path d="m53 53h4v4h-4z" fill="#e59730"/><path d="m45 45h4v4h-4z" fill="#fcbc04"/><path d="m45 49h4v4h-4z" fill="#f9e109"/><path d="m45 53h4v4h-4z" fill="#e59730"/><path d="m15 45h4v4h-4z" fill="#fcbc04"/><path d="m7 45h4v4h-4z" fill="#fcbc04"/><path d="m15 49h4v4h-4z" fill="#f9e109"/><path d="m15 53h4v4h-4z" fill="#e59730"/><path d="m7 53h4v4h-4z" fill="#e59730"/><path d="m41 53v-2h-15a12.017 12.017 0 0 1 -3-.393v2.393z" fill="#4891d3"/><path d="m45 51h4v2h-4z" fill="#fcbc04"/><path d="m15 49h4v-.267a12.038 12.038 0 0 1 -3.382-3.733h-.618z" fill="#e59730"/><path d="m38 53h3v-2h-5z" fill="#57b7eb"/><g fill="#a1d51c"><circle cx="24" cy="57" r="1"/><circle cx="28" cy="57" r="1"/><circle cx="32" cy="57" r="1"/><circle cx="36" cy="57" r="1"/><circle cx="40" cy="57" r="1"/></g></g></g></g></g></svg>