<svg id="Capa_1" enable-background="new 0 0 512 512" height="512" viewBox="0 0 512 512" width="512" xmlns="http://www.w3.org/2000/svg"><g><path d="m449.472 355.576h-188.991v-32.44h168.159c11.505 0 20.831 9.327 20.831 20.831v11.609z" fill="#78d0b1"/><path d="m428.64 323.136h-23.309c11.505 0 20.831 9.327 20.831 20.832v11.609h23.309v-11.609c.001-11.505-9.326-20.832-20.831-20.832z" fill="#61aab7"/><circle cx="244.536" cy="328.88" fill="#f1b986" r="30.091"/><path d="m244.536 298.789c-2.774 0-5.457.383-8.008 1.086 12.73 3.507 22.083 15.161 22.083 29.006s-9.353 25.498-22.083 29.005c2.551.703 5.234 1.086 8.008 1.086 16.619 0 30.091-13.472 30.091-30.091 0-16.62-13.472-30.092-30.091-30.092z" fill="#e2a770"/><path d="m230.654 355.576h-25.908v-51.265c0-7.52 6.096-13.615 13.615-13.615h8.794c1.932 0 3.499 1.566 3.499 3.499z" fill="#2b4d66"/><path d="m152.518 390.421h306.593v110.328h-306.593z" fill="#98b9d3"/><path d="m152.518 390.421v16.601h257.733c16.432 0 29.753 13.321 29.753 29.753v63.975h19.108v-110.329z" fill="#81a7c6"/><path d="m473.117 351.576h-320.599v38.845h320.599c10.727 0 19.422-8.696 19.422-19.422.001-10.727-8.695-19.423-19.422-19.423z" fill="#e4f6ff"/><path d="m473.117 351.576h-20.907c10.727 0 19.422 8.696 19.422 19.422s-8.696 19.422-19.422 19.422h20.908c10.727 0 19.422-8.696 19.422-19.422s-8.696-19.422-19.423-19.422z" fill="#bed8fb"/><path d="m32.295 26.618v474.132h166.133l-37.495-349.844c-1.338-12.487 8.447-23.377 21.006-23.377h254.304c12.63 0 22.868-10.238 22.868-22.868v-78.043c0-12.63-10.238-22.868-22.868-22.868h-381.08c-12.629 0-22.868 10.238-22.868 22.868z" fill="#f1f1f4"/><g fill="#dfeaef"><path d="m181.94 127.528h-24.401c-12.558 0-22.344 10.89-21.006 23.377l37.495 349.844h24.401l-37.495-349.844c-1.338-12.486 8.447-23.377 21.006-23.377z"/><path d="m436.244 3.75h-24.401c12.63 0 22.868 10.238 22.868 22.868v78.043c0 12.63-10.238 22.868-22.868 22.868h24.401c12.63 0 22.868-10.238 22.868-22.868v-78.043c-.001-12.63-10.239-22.868-22.868-22.868z"/></g><g><path d="m470.463 57.236h-451.002c-4.143 0-7.5-3.357-7.5-7.5s3.357-7.5 7.5-7.5h451.002c4.143 0 7.5 3.357 7.5 7.5s-3.358 7.5-7.5 7.5z" fill="#dfeaef"/></g><path d="m414.957 169.398h-107.541c-3.938 0-7.13-3.192-7.13-7.13v-34.74h121.801v34.74c0 3.938-3.192 7.13-7.13 7.13z" fill="#98b9d3"/><path d="m401.305 127.528v34.74c0 3.938-3.192 7.13-7.13 7.13h20.782c3.938 0 7.13-3.192 7.13-7.13v-34.74z" fill="#81a7c6"/><path d="m401.305 169.398h-80.237l11.255 25.78c1.753 4.016 6.421 6.699 11.655 6.699h34.418c5.234 0 9.901-2.683 11.655-6.699z" fill="#365e7d"/><path d="m380.524 169.398-11.255 25.779c-1.753 4.016-6.421 6.699-11.655 6.699h20.782c5.234 0 9.901-2.683 11.655-6.699l11.255-25.779z" fill="#2b4d66"/><g><path d="m504.5 508.25h-497c-4.143 0-7.5-3.357-7.5-7.5s3.357-7.5 7.5-7.5h497c4.143 0 7.5 3.357 7.5 7.5s-3.357 7.5-7.5 7.5z" fill="#2b4d66"/></g><g><path d="m224.292 103.204c-4.143 0-7.5-3.357-7.5-7.5v-14.01c0-4.143 3.357-7.5 7.5-7.5s7.5 3.357 7.5 7.5v14.011c0 4.142-3.357 7.499-7.5 7.499z" fill="#2b4d66"/></g><g><path d="m260.481 103.204c-4.143 0-7.5-3.357-7.5-7.5v-14.01c0-4.143 3.357-7.5 7.5-7.5s7.5 3.357 7.5 7.5v14.011c0 4.142-3.357 7.499-7.5 7.499z" fill="#2b4d66"/></g><g><path d="m296.67 103.204c-4.143 0-7.5-3.357-7.5-7.5v-14.01c0-4.143 3.357-7.5 7.5-7.5s7.5 3.357 7.5 7.5v14.011c0 4.142-3.358 7.499-7.5 7.499z" fill="#2b4d66"/></g><g><path d="m245.703 446.059h-21.411c-4.143 0-7.5-3.357-7.5-7.5s3.357-7.5 7.5-7.5h21.411c4.143 0 7.5 3.357 7.5 7.5s-3.357 7.5-7.5 7.5z" fill="#80b4fb"/></g><g><path d="m296.038 446.059h-21.411c-4.143 0-7.5-3.357-7.5-7.5s3.357-7.5 7.5-7.5h21.411c4.143 0 7.5 3.357 7.5 7.5s-3.357 7.5-7.5 7.5z" fill="#80b4fb"/></g><g><path d="m346.373 446.059h-21.411c-4.143 0-7.5-3.357-7.5-7.5s3.357-7.5 7.5-7.5h21.411c4.143 0 7.5 3.357 7.5 7.5s-3.357 7.5-7.5 7.5z" fill="#80b4fb"/></g><g><path d="m379.547 460.201c-4.143 0-7.5-3.357-7.5-7.5v-14.143c0-4.143 3.357-7.5 7.5-7.5s7.5 3.357 7.5 7.5v14.143c0 4.143-3.358 7.5-7.5 7.5z" fill="#2b4d66"/></g><g><path d="m405.125 460.201c-4.143 0-7.5-3.357-7.5-7.5v-14.143c0-4.143 3.357-7.5 7.5-7.5s7.5 3.357 7.5 7.5v14.143c0 4.143-3.357 7.5-7.5 7.5z" fill="#2b4d66"/></g><g><path d="m430.703 460.201c-4.143 0-7.5-3.357-7.5-7.5v-14.143c0-4.143 3.357-7.5 7.5-7.5s7.5 3.357 7.5 7.5v14.143c0 4.143-3.357 7.5-7.5 7.5z" fill="#2b4d66"/></g><path d="m178.585 239.524h-150.795c-4.6 0-8.329-3.729-8.329-8.329v-36.139c0-4.6 3.729-8.329 8.329-8.329h150.795c4.6 0 8.329 3.729 8.329 8.329v36.139c0 4.6-3.729 8.329-8.329 8.329z" fill="#80b4fb"/><path d="m178.585 186.726h-19.158c4.6 0 8.329 3.729 8.329 8.329v36.139c0 4.6-3.729 8.329-8.329 8.329h19.158c4.6 0 8.329-3.729 8.329-8.329v-36.139c.001-4.6-3.729-8.329-8.329-8.329z" fill="#61a2f9"/><path d="m345.937 201.877h30.5l20.728 79.089c.759 2.898-1.427 5.731-4.422 5.731h-63.111c-2.996 0-5.182-2.833-4.422-5.731z" fill="#80b4fb"/><path d="m376.437 201.877h-17.093l22.229 84.819h11.169c2.996 0 5.182-2.833 4.422-5.731z" fill="#61a2f9"/></g></svg>