<svg id="Layer_3" enable-background="new 0 0 64 64" height="512" viewBox="0 0 64 64" width="512" xmlns="http://www.w3.org/2000/svg"><g><path d="m26 32v-7.791c0-1.875-1.302-3.498-3.132-3.905l-3.657-.813c-1.372-.305-2.483-1.307-2.927-2.64l-.284-.851h-4l-.284.851c-.444 1.333-1.555 2.335-2.927 2.64l-3.657.813c-1.83.407-3.132 2.03-3.132 3.905v7.791z" fill="#3279ea"/><path d="m10 28c-1.105 0-2-.895-2-2v-6.333l.789-.175c1.372-.305 2.483-1.307 2.927-2.64l.284-.852h4l.284.851c.444 1.333 1.555 2.335 2.927 2.64l3.657.813c1.83.407 3.132 2.03 3.132 3.905v3.791z" fill="#2862be"/><path d="m14 16c3.314 0 6-2.686 6-6v-2c0-3.314-2.686-6-6-6-3.314 0-6 2.686-6 6v2c0 3.314 2.686 6 6 6z" fill="#f2b9a1"/><path d="m11.716 16.851.284-.851v-1l4.041-.005-.041 1.005.284.851c.226.677.624 1.266 1.14 1.725l-3.424 3.424-3.424-3.424c.516-.458.915-1.048 1.14-1.725z" fill="#f2b9a1"/><g><path d="m5 27h6v2h-6z" fill="#78a0d4"/></g><path d="m9 12c1.281-1.281 3.018-2 4.83-2h.342c1.811 0 3.549.72 4.83 2l.465.465c-.942 2.083-3.033 3.535-5.467 3.535s-4.525-1.452-5.466-3.534z" fill="#78a0d4"/><path d="m13.829 10h.342c1.811 0 3.549.72 4.83 2l.465.465c-.255.565-.602 1.078-1.011 1.534h-6.455c-.552 0-1-.448-1-1v-2.378c.881-.401 1.842-.621 2.829-.621z" fill="#c0dafc"/><path d="m14.185 2.003c3.283.098 5.815 2.963 5.815 6.249v1.748c-1.105 0-2-.895-2-2 0-1.105-.895-2-2-2h-4c-1.105 0-2 .895-2 2 0 1.105-.895 2-2 2v-2c0-3.375 2.787-6.099 6.185-5.997z" fill="#4c506e"/><path d="m38 32v-7.791c0-1.875 1.302-3.498 3.132-3.905l3.657-.813c1.372-.305 2.483-1.307 2.927-2.64l.284-.851h4l.284.851c.444 1.333 1.555 2.335 2.927 2.64l3.657.813c1.83.407 3.132 2.03 3.132 3.905v7.791z" fill="#3279ea"/><path d="m54 28c1.105 0 2-.895 2-2v-6.333l-.789-.175c-1.372-.305-2.483-1.307-2.927-2.64l-.284-.852h-4l-.284.851c-.444 1.333-1.555 2.335-2.927 2.64l-3.657.813c-1.83.407-3.132 2.03-3.132 3.905v3.791z" fill="#2862be"/><path d="m22 34v-5c0-3.866 3.134-7 7-7h6c3.866 0 7 3.134 7 7v5" fill="#3279ea"/><path d="m22 30h20v5h-20z" fill="#2862be"/><path d="m25 40h-2c-1.657 0-3-1.343-3-3 0-1.657 1.343-3 3-3h2" fill="#f2b9a1"/><path d="m39 34h2c1.657 0 3 1.343 3 3 0 1.657-1.343 3-3 3h-2" fill="#f2b9a1"/><path d="m28 45-8.052 2.196c-1.741.475-2.948 2.055-2.948 3.859v10.945h30v-10.945c0-1.804-1.207-3.384-2.948-3.859l-8.052-2.196" fill="#2862be"/><path d="m37 58c1.105 0 2-.895 2-2v-10.182l-3-.818h-8l-8.052 2.196c-1.741.475-2.948 2.055-2.948 3.859v6.945z" fill="#3279ea"/><path d="m32 52 4.564-6.846-.564-.154h-8l-.564.154z" fill="#f2b9a1"/><path d="m37 45.273-1-.273h-1v14h2z" fill="#78a0d4"/><path d="m29 45h-1l-1 .273v12.727h2z" fill="#78a0d4"/><path d="m40 34v4c0 4.418-3.582 8-8 8-4.418 0-8-3.582-8-8v-4" fill="#fbe1ca"/><path d="m39 41-1.317-.658c-1.764-.883-3.71-1.342-5.683-1.342s-3.919.459-5.683 1.342l-1.317.658-.344.172c1.229 2.84 4.053 4.828 7.344 4.828s6.115-1.988 7.344-4.828z" fill="#78a0d4"/><g><path d="m31 62h-2v-2c0-.551-.448-1-1-1s-1 .449-1 1v2h-2v-2c0-1.654 1.346-3 3-3s3 1.346 3 3z" fill="#c0dafc"/></g><path d="m41 58h6v4h-6z" fill="#f2b9a1"/><path d="m17 58h6v4h-6z" fill="#f2b9a1"/><circle cx="36" cy="60" fill="#c0dafc" r="2"/><g><path d="m35.5 38c-.827 0-1.5-.673-1.5-1.5s.673-1.5 1.5-1.5 1.5.673 1.5 1.5-.673 1.5-1.5 1.5z" fill="#4c506e"/></g><g><path d="m28.5 38c-.827 0-1.5-.673-1.5-1.5s.673-1.5 1.5-1.5 1.5.673 1.5 1.5-.673 1.5-1.5 1.5z" fill="#4c506e"/></g><path d="m50 16c-3.314 0-6-2.686-6-6v-2c0-3.314 2.686-6 6-6 3.314 0 6 2.686 6 6v2c0 3.314-2.686 6-6 6z" fill="#f2b9a1"/><path d="m52.284 16.851-.284-.851v-1l-4.041-.005.041 1.005-.284.851c-.226.677-.624 1.266-1.14 1.725l3.424 3.424 3.424-3.424c-.516-.458-.915-1.048-1.14-1.725z" fill="#f2b9a1"/><g><path d="m53 27h6v2h-6z" fill="#78a0d4"/></g><path d="m55 12c-1.281-1.281-3.018-2-4.83-2h-.342c-1.811 0-3.549.72-4.83 2l-.465.465c.942 2.083 3.033 3.535 5.467 3.535s4.525-1.452 5.466-3.534z" fill="#78a0d4"/><path d="m41 58v3h3c.552 0 1-.448 1-1v-2z" fill="#fbe1ca"/><path d="m17 58v3h3c.552 0 1-.448 1-1v-2z" fill="#fbe1ca"/><path d="m32 39c-1.973 0-3.919.459-5.683 1.342l-1.317.658-.344.172c.287.663.667 1.273 1.113 1.828h9.231c.552 0 1-.448 1-1v-2.338c-1.288-.428-2.635-.662-4-.662z" fill="#c0dafc"/><path d="m50.171 10h-.342c-1.811 0-3.549.72-4.83 2l-.465.465c.255.565.602 1.078 1.011 1.534h6.455c.552 0 1-.448 1-1v-2.378c-.881-.401-1.842-.621-2.829-.621z" fill="#c0dafc"/><path d="m49.815 2.003c-3.283.098-5.815 2.963-5.815 6.249v1.748c1.105 0 2-.895 2-2 0-1.105.895-2 2-2h4c1.105 0 2 .895 2 2 0 1.105.895 2 2 2v-2c0-3.375-2.787-6.099-6.185-5.997z" fill="#4c506e"/></g></svg>