<svg id="Capa_1" enable-background="new 0 0 512 512" height="512" viewBox="0 0 512 512" width="512" xmlns="http://www.w3.org/2000/svg"><g><path d="m403.996 68.391 1.629-1.13c22.21-15.406 52.736-.705 54.538 26.264l.132 1.978c.968 14.48 10.823 26.838 24.725 31.004l1.899.569c25.892 7.759 33.432 40.791 13.47 59.015l-1.464 1.337c-10.718 9.785-14.235 25.195-8.824 38.661l.739 1.839c10.078 25.081-11.047 51.57-37.742 47.327l-1.958-.311c-14.333-2.279-28.574 4.58-35.729 17.206l-.977 1.725c-13.326 23.517-47.207 23.517-60.533 0l-.977-1.725c-7.155-12.626-21.396-19.485-35.729-17.206l-1.958.311c-26.694 4.244-47.819-22.246-37.742-47.327l.739-1.839c5.411-13.466 1.894-28.876-8.824-38.661l-1.464-1.337c-19.962-18.225-12.422-51.257 13.47-59.015l1.899-.569c13.902-4.166 23.757-16.524 24.725-31.004l.132-1.978c1.803-26.969 32.329-41.67 54.538-26.264l1.629 1.13c11.926 8.271 27.733 8.271 39.657 0z" fill="#a0e7e7"/><circle cx="428.986" cy="191.253" fill="#fcf2d0" r="17.962"/><circle cx="386.609" cy="131.304" fill="#fcf2d0" r="17.962"/><path d="m318.651 471.433c-7.308 16.155-26.545 23.027-42.457 15.205-70.497-34.656-131.391-75.058-177.414-117.849-63.928-59.439-96.868-120.684-97.948-182.09-1.614-91.711 68.811-167.609 160.409-172.425 97.603-5.132 178.648 72.798 178.648 169.302h-109.388c0-33.169-26.985-60.154-60.154-60.154-33.17 0-60.155 26.985-60.155 60.154 0 29.96 22.399 67.285 63.072 105.102 37.479 34.846 89.998 69.505 149.923 99.152 15.161 7.501 21.687 25.636 14.715 41.047z" fill="#eda1ab"/><path d="m287.793 369.257c-45.161-25.109-84.633-52.783-114.529-80.579-9.517-8.849-18.02-17.669-25.483-26.376-.854.81-1.719 1.624-2.603 2.445-22.683 21.09-52.052 42.593-85.519 62.81 11.405 13.826 24.435 27.577 39.121 41.231 28.44 26.443 62.565 51.972 101.12 75.798 23.649-16.776 45.219-34.159 64.264-51.866 8.361-7.775 16.228-15.598 23.629-23.463z" fill="#e8899e"/><path d="m22.042 471.433-19.251-42.555c-6.972-15.411-.446-33.547 14.715-41.047 59.926-29.647 112.444-64.306 149.923-99.152 40.672-37.817 63.072-75.143 63.072-105.102h109.387c0 62.452-32.964 124.767-97.976 185.212-46.023 42.791-106.917 83.193-177.413 117.849-15.912 7.822-35.149.95-42.457-15.205z" fill="#eda1ab"/><path d="m170.347 123.422c33.17 0 60.156 26.985 60.156 60.154 0 14.141-4.996 29.924-14.542 46.623 22.888-32.614 93.118-210.392-39.064-216.026-.073-.003-.146-.006-.219-.009-2.062-.085-4.17-.13-6.331-.13s-4.269.045-6.331.13c-.073.003-.146.006-.219.009-132.182 5.633-61.952 183.412-39.064 216.026-9.546-16.7-14.542-32.482-14.542-46.623.001-33.169 26.986-60.154 60.156-60.154z" fill="#e8899e"/><ellipse cx="384.168" cy="370.134" fill="#e8899e" rx="127.832" ry="127.832" transform="matrix(.707 -.707 .707 .707 -149.204 380.058)"/><path d="m409.414 338.192v-37.1c0-3.698-2.998-6.696-6.696-6.696h-37.099c-3.698 0-6.696 2.998-6.696 6.696v37.1c0 3.698-2.998 6.696-6.696 6.696h-37.099c-3.698 0-6.696 2.998-6.696 6.696v37.099c0 3.698 2.998 6.696 6.696 6.696h37.099c3.698 0 6.696 2.998 6.696 6.696v37.099c0 3.698 2.998 6.696 6.696 6.696h37.099c3.698 0 6.696-2.998 6.696-6.696v-37.099c0-3.698 2.998-6.696 6.696-6.696h37.099c3.698 0 6.696-2.998 6.696-6.696v-37.099c0-3.698-2.998-6.696-6.696-6.696h-37.099c-3.698 0-6.696-2.998-6.696-6.696z" fill="#fff"/></g></svg>